<?xml version="1.0" standalone="no"?>
<!DOCTYPE svg PUBLIC "-//W3C//DTD SVG 20010904//EN"
 "http://www.w3.org/TR/2001/REC-SVG-20010904/DTD/svg10.dtd">
<svg version="1.0" xmlns="http://www.w3.org/2000/svg"
 width="270.000000pt" height="270.000000pt" viewBox="0 0 270.000000 270.000000"
 preserveAspectRatio="xMidYMid meet">
<metadata>
Created by potrace 1.11, written by Peter Selinger 2001-2013
</metadata>
<g transform="translate(0.000000,270.000000) scale(0.100000,-0.100000)"
fill="#000000" stroke="none">
<path d="M206 2493 c-4 -4 -23 -6 -42 -4 -48 4 -81 -20 -90 -64 -3 -20 1 -84
10 -143 13 -85 14 -126 6 -197 -21 -192 -4 -293 74 -433 l46 -83 0 -687 -1
-687 1148 0 1148 0 3 279 2 280 60 62 c71 73 90 114 90 186 0 68 -43 160 -104
226 l-46 49 -2 609 -3 609 -1146 3 c-630 1 -1149 -1 -1153 -5z m115 -94 c60
-29 119 -63 131 -77 13 -13 38 -30 56 -37 17 -8 32 -19 32 -24 0 -9 -18 -1
-90 38 -38 22 -69 33 -93 34 -14 1 -23 4 -21 6 2 2 -2 11 -9 19 -10 13 -9 15
6 9 38 -14 14 4 -43 33 -60 30 -98 42 -47 14 23 -12 26 -18 17 -34 -11 -20
-22 -27 -18 -12 4 12 -56 66 -77 70 -9 2 -14 -1 -11 -6 3 -6 -2 -8 -14 -5 -11
3 -20 1 -21 -3 -2 -28 -11 -69 -15 -73 -2 -2 -4 14 -4 37 0 90 53 92 221 11z
m2139 -513 l0 -565 -47 21 c-59 26 -127 26 -203 0 l-55 -19 -53 30 c-29 16
-99 49 -155 73 -119 50 -156 78 -193 139 -24 42 -25 48 -13 78 20 46 17 233
-5 327 -10 41 -30 135 -45 208 -17 81 -36 144 -48 160 -11 15 -23 37 -27 49
-4 12 -14 24 -22 27 -29 11 -56 -16 -91 -92 -53 -114 -128 -235 -163 -260 -29
-22 -37 -23 -198 -20 -139 2 -176 0 -219 -15 -87 -30 -109 -23 -170 58 -108
142 -189 211 -368 314 l-89 51 1082 0 1082 0 0 -564z m-2155 496 c6 -4 12 -16
13 -26 3 -17 2 -18 -12 -7 -9 8 -16 10 -16 5 0 -11 -20 18 -20 29 0 9 22 9 35
-1z m1280 -44 c-4 -24 -12 -46 -17 -49 -5 -3 -11 -12 -12 -20 -3 -13 -11 -36
-38 -96 -7 -16 -12 -33 -13 -40 0 -6 -4 -15 -8 -19 -4 -4 -2 -13 5 -21 8 -10
8 -17 -1 -26 -10 -9 -11 -8 -5 7 5 13 4 17 -4 12 -16 -9 -15 -33 1 -39 6 -3 2
-6 -11 -6 -13 -1 -21 -5 -17 -10 3 -6 14 -8 25 -6 17 3 19 0 15 -23 -4 -15 -7
-33 -9 -41 -1 -8 -10 -15 -19 -17 -15 -2 -15 1 -2 33 9 20 13 38 10 41 -3 3
-5 0 -5 -7 0 -7 -4 -10 -9 -6 -5 3 -13 0 -17 -6 -4 -8 -3 -9 4 -5 7 4 12 2 12
-4 0 -6 -7 -13 -15 -16 -10 -4 -13 -14 -8 -32 l6 -26 -26 17 c-29 19 -67 23
-67 7 0 -6 11 -8 25 -6 21 4 25 1 25 -20 0 -14 5 -23 13 -22 6 2 11 -2 10 -9
-2 -7 3 -10 10 -8 6 3 20 -9 30 -27 13 -23 21 -28 29 -20 8 8 9 18 0 36 -9 20
-8 25 5 30 9 4 13 9 10 12 -3 3 -14 1 -24 -4 -21 -12 -53 1 -34 12 6 4 11 3
11 -3 0 -6 7 -8 16 -4 11 4 12 8 4 13 -8 5 -7 9 5 13 9 4 13 3 10 -3 -3 -6 -2
-10 3 -10 6 0 13 7 16 16 3 8 2 13 -2 10 -5 -3 -8 87 -3 125 1 4 8 10 17 13
14 5 15 4 4 -9 -12 -15 -4 -20 22 -16 4 0 5 -6 1 -15 -5 -13 -7 -13 -14 -2 -6
9 -9 9 -9 1 0 -6 4 -14 10 -18 5 -3 7 -12 3 -20 -3 -8 0 -15 7 -15 6 0 9 -4 6
-8 -3 -5 -7 -29 -10 -54 -7 -55 -15 -78 -27 -78 -5 0 -9 -9 -9 -20 0 -14 9
-21 35 -26 21 -4 32 -10 28 -17 -4 -6 0 -8 9 -4 9 3 15 1 14 -6 -3 -22 -17
-37 -28 -31 -6 4 -8 -1 -5 -12 4 -11 9 -31 12 -46 4 -15 13 -29 21 -32 22 -8
16 -26 -7 -23 -12 1 -24 -4 -27 -12 -3 -10 3 -12 27 -6 26 5 31 4 31 -12 0
-19 32 -53 50 -53 6 0 6 10 -1 27 l-10 27 23 -19 c13 -11 27 -26 32 -34 29
-47 93 -102 141 -122 30 -12 51 -27 48 -32 -4 -6 -1 -7 6 -2 15 8 93 -24 86
-35 -3 -5 3 -6 12 -4 10 2 42 -10 72 -27 51 -29 53 -32 36 -45 -10 -8 -27 -14
-36 -14 -10 0 -21 -4 -24 -10 -4 -6 1 -7 12 -3 10 3 0 -11 -23 -33 -22 -21
-46 -48 -53 -59 -8 -11 2 -4 21 15 42 44 103 90 117 90 6 0 11 5 11 10 0 6 5
10 11 10 5 0 8 -4 5 -8 -2 -4 -1 -14 5 -22 7 -12 9 -11 9 5 0 17 2 17 10 5 7
-11 3 -20 -17 -35 -55 -40 -133 -118 -133 -132 0 -13 -3 -13 -15 -3 -14 11
-14 10 -6 -13 8 -21 8 -25 -5 -20 -8 3 -25 -6 -39 -21 -13 -14 -21 -26 -17
-26 14 0 11 -41 -3 -46 -8 -3 -11 -13 -8 -22 3 -11 2 -13 -4 -6 -8 10 -53 26
-53 18 0 -2 9 -11 19 -21 14 -13 17 -23 11 -33 -8 -12 -10 -12 -10 4 0 12 -5
16 -15 12 -8 -3 -19 3 -25 12 -9 14 -10 12 -4 -8 3 -14 3 -22 -1 -18 -10 9
-38 -20 -53 -55 -16 -36 -15 -38 6 -30 13 5 14 3 5 -7 -6 -7 -9 -19 -5 -28 4
-11 1 -14 -11 -9 -14 5 -15 2 -6 -20 13 -36 5 -39 -16 -7 -27 42 -15 104 38
189 6 11 16 23 21 26 5 4 5 12 1 19 -5 8 -4 11 2 7 6 -4 21 6 34 21 13 14 17
21 8 14 -9 -7 -23 -10 -30 -7 -19 6 -53 -21 -46 -38 4 -10 -2 -13 -21 -10
l-27 4 25 -15 c21 -13 22 -15 6 -16 -13 0 -16 -5 -12 -17 4 -10 4 -14 0 -11
-4 4 -15 3 -25 -3 -13 -7 -19 -6 -19 1 0 6 6 13 14 16 8 3 12 13 9 24 -3 10 0
27 6 39 20 37 5 22 -25 -24 -15 -25 -32 -45 -37 -45 -5 0 -4 -7 3 -15 7 -9 10
-18 6 -22 -3 -3 -6 0 -6 7 0 30 -52 -88 -53 -120 0 -19 -2 -27 -4 -18 -3 10
-8 18 -12 18 -4 0 -5 17 -3 38 3 29 1 34 -8 22 -10 -13 -11 -13 -8 0 2 8 18
22 36 30 35 17 43 45 13 47 -14 1 -19 -4 -16 -17 2 -10 -3 -21 -11 -24 -19 -7
-19 38 1 93 8 22 11 41 8 41 -4 0 -2 5 5 12 7 7 12 16 12 20 0 5 -20 -12 -45
-37 -25 -25 -50 -45 -55 -45 -6 0 -10 -7 -10 -15 0 -8 5 -15 11 -15 5 0 7 4 4
10 -3 5 0 7 8 4 10 -3 17 4 21 20 3 14 11 26 17 26 8 0 8 -5 -1 -15 -6 -8 -9
-19 -6 -24 4 -5 1 -13 -5 -17 -8 -4 -7 -9 2 -16 9 -6 0 -7 -26 -3 -22 4 -42
12 -44 18 -2 6 -9 -5 -15 -23 -6 -18 -18 -35 -26 -38 -13 -3 -13 -2 0 7 12 9
13 14 3 31 -7 11 -13 22 -13 25 0 4 6 3 13 -1 6 -4 9 -4 5 1 -4 4 -3 14 4 22
8 10 8 12 -4 8 -9 -3 -20 -17 -27 -31 -6 -14 -15 -23 -20 -20 -5 4 -7 -4 -3
-16 4 -16 2 -19 -8 -13 -9 5 -11 4 -6 -3 4 -7 1 -12 -8 -12 -8 0 -16 5 -18 10
-2 6 -19 0 -38 -13 l-34 -24 -39 21 c-39 21 -39 21 -54 1 -15 -20 -15 -19 -8
3 3 12 2 22 -3 22 -5 0 -12 9 -15 20 -5 21 -41 28 -52 10 -4 -6 -11 -7 -17 -4
-7 4 -8 2 -4 -4 4 -7 2 -12 -5 -12 -7 0 -4 -8 7 -18 10 -9 19 -24 19 -32 0 -8
6 -14 13 -12 10 2 10 -2 1 -20 -9 -19 -9 -21 2 -11 16 15 33 17 24 3 -3 -5 0
-19 8 -31 8 -11 18 -16 21 -11 3 6 1 13 -4 15 -6 3 -5 4 2 3 7 -2 12 -14 10
-26 -3 -32 -12 -38 -23 -18 -5 10 -17 14 -29 11 -12 -3 -20 0 -20 6 0 7 4 10
8 7 5 -3 9 1 9 8 0 18 -27 16 -28 -3 -1 -9 -1 -18 -1 -21 0 -3 -9 -7 -20 -7
-20 -2 -20 -1 -2 18 15 16 16 22 5 29 -11 6 -10 9 5 13 15 4 16 5 2 6 -9 0
-23 -5 -30 -12 -7 -6 -22 -13 -33 -15 -19 -3 -19 -2 1 15 14 11 21 28 20 46
-1 19 2 26 12 22 7 -3 10 0 7 6 -4 6 -13 8 -21 5 -8 -3 -13 0 -11 7 1 7 -7 11
-20 9 -13 -2 -31 1 -40 7 -15 9 -14 10 9 8 15 -1 27 3 27 8 1 6 -7 10 -16 10
-18 0 -33 13 -33 28 0 4 5 7 11 7 5 0 7 -4 4 -10 -3 -5 -2 -10 4 -10 13 0 42
55 34 64 -6 6 17 9 61 9 16 -1 14 3 -8 22 -31 26 -32 33 -8 51 24 19 37 17 17
-2 -13 -14 -14 -19 -3 -25 7 -5 9 -9 4 -9 -5 0 -3 -7 4 -15 7 -9 20 -13 28
-10 12 4 13 3 2 -10 -7 -8 -8 -15 -2 -15 15 0 22 25 11 41 -5 8 -9 10 -9 4 0
-12 -20 16 -20 29 0 5 7 3 16 -4 22 -19 15 7 -9 35 -10 11 -16 28 -13 37 2 10
-1 21 -7 25 -7 3 -9 3 -5 -2 4 -4 3 -16 -3 -26 -7 -14 -6 -19 3 -19 16 -1 -33
-39 -49 -40 -7 0 -13 10 -13 21 0 18 2 19 15 9 12 -10 15 -10 15 4 0 9 -5 16
-11 16 -5 0 -8 4 -4 9 3 6 -6 8 -21 5 -24 -4 -26 -3 -14 11 16 19 3 20 -16 0
-9 -8 -11 -15 -5 -15 6 0 11 -8 11 -17 0 -15 2 -16 10 -3 5 8 10 10 10 4 0
-15 -25 -36 -33 -27 -10 9 -38 -18 -30 -30 3 -6 1 -7 -5 -3 -16 10 -15 29 4
52 8 10 13 13 9 7 -3 -7 -2 -13 4 -13 15 0 23 18 11 25 -6 4 -7 12 -3 18 13
22 12 39 -3 33 -8 -3 -14 1 -14 9 0 8 5 15 10 15 6 0 10 4 10 10 0 6 -9 6 -25
0 -16 -6 -25 -6 -25 0 0 5 -8 7 -17 3 -10 -3 0 10 22 31 27 24 35 36 24 36
-23 0 -29 22 -13 45 8 10 14 13 14 7 0 -7 4 -12 8 -12 12 0 8 88 -3 99 -14 14
-28 2 -48 -39 -9 -19 -26 -46 -37 -60 -17 -21 -21 -23 -31 -10 -8 12 -9 9 -4
-13 4 -21 3 -27 -6 -21 -7 4 -9 3 -5 -4 3 -6 2 -13 -4 -17 -5 -3 -10 -11 -10
-17 0 -6 11 -1 24 11 13 12 30 21 37 19 9 -2 13 4 11 16 -3 15 -1 16 11 5 9
-8 12 -18 7 -23 -5 -5 -6 -16 -2 -25 5 -14 4 -14 -11 -2 -15 12 -22 12 -45 1
-15 -8 -31 -13 -35 -11 -5 1 -6 -3 -2 -9 3 -6 11 -8 16 -4 20 12 59 14 59 3 0
-6 -9 -9 -20 -6 -13 3 -20 0 -20 -8 0 -9 8 -12 20 -10 12 2 18 0 15 -6 -4 -5
-10 -7 -15 -4 -5 3 -12 0 -16 -6 -3 -6 -2 -14 4 -18 15 -9 -8 -38 -31 -38 -16
0 -16 1 0 20 18 19 17 20 -7 7 -21 -11 -23 -11 -14 1 6 8 14 22 17 32 6 15 3
17 -16 13 -12 -3 -16 -3 -9 0 18 8 15 21 -7 27 -10 2 -24 15 -31 28 l-11 24
19 -25 c17 -20 23 -22 36 -11 11 9 14 24 10 52 -4 30 -2 40 10 45 9 3 16 11
16 18 0 6 7 22 16 35 13 18 18 20 25 10 5 -8 3 -16 -4 -21 -9 -5 -9 -10 1 -18
6 -5 10 -7 7 -4 -2 4 6 21 18 38 12 17 21 32 19 34 -9 9 1 23 12 19 10 -4 13
-1 9 9 -7 18 26 57 43 50 9 -3 8 3 -2 22 -8 15 -14 39 -14 54 0 23 -5 28 -35
34 -19 3 -45 4 -57 1 -13 -4 -27 -7 -33 -7 -5 -1 -19 -9 -29 -18 -15 -14 -18
-14 -14 -2 9 28 69 60 114 60 43 0 67 16 44 30 -11 7 -2 9 53 11 6 0 23 -2 37
-5 17 -4 14 -1 -9 10 -19 8 -42 16 -52 17 -10 1 -15 7 -12 17 3 10 0 9 -11 -4
-12 -15 -16 -16 -17 -5 0 10 -2 10 -6 2 -2 -7 -18 -13 -34 -13 -16 0 -29 -4
-29 -8 0 -4 -10 -8 -22 -9 -11 -1 -25 -8 -29 -15 -6 -10 -14 -7 -31 12 -13 14
-17 20 -9 13 7 -6 20 -9 27 -6 11 4 10 9 -6 23 -20 17 -20 18 5 18 15 0 22 -5
18 -12 -3 -6 3 -3 14 7 11 9 22 14 25 11 3 -3 9 0 13 7 6 8 1 10 -18 7 -15 -3
-28 0 -31 7 -2 7 1 12 7 12 41 -1 49 3 37 18 -10 12 -16 13 -28 3 -12 -10 -12
-7 2 14 13 20 14 27 4 30 -10 4 -8 9 5 22 9 10 17 19 17 22 0 8 -9 4 -25 -12
-15 -15 -17 -15 -35 1 -12 11 -20 13 -20 7 0 -16 -22 -11 -37 8 -11 13 -14 13
-23 0 -5 -8 -10 -10 -10 -5 0 6 5 16 12 23 16 16 -4 16 -21 0 -11 -11 -12 -9
-3 8 9 17 8 25 -8 39 -10 9 -32 45 -49 79 -31 64 -86 141 -102 141 -12 0 -62
55 -56 62 14 14 111 -87 179 -187 17 -25 40 -53 52 -62 27 -23 83 -23 143 0
40 14 76 17 221 14 l172 -3 39 32 c49 39 114 143 170 272 20 44 35 67 46 67
14 0 16 -7 10 -42z m-8 -90 c-3 -8 -6 -5 -6 6 -1 11 2 17 5 13 3 -3 4 -12 1
-19z m-1433 -34 c3 -8 2 -12 -4 -9 -6 3 -10 10 -10 16 0 14 7 11 14 -7z m1426
12 c0 -2 -8 -10 -17 -17 -16 -13 -17 -12 -4 4 13 16 21 21 21 13z m-20 -59
c-13 -12 -18 -14 -11 -4 8 9 10 17 5 17 -5 0 -2 4 6 10 25 16 25 1 0 -23z
m-1399 -12 c-1 -15 -24 -12 -29 3 -3 9 2 13 12 10 10 -1 17 -7 17 -13z m-1
-35 c0 -5 -5 -10 -11 -10 -5 0 -7 5 -4 10 3 6 8 10 11 10 2 0 4 -4 4 -10z
m1400 -9 c0 -5 -7 -12 -16 -15 -14 -5 -15 -4 -4 9 14 17 20 19 20 6z m-1395
-20 c3 -5 7 -33 10 -60 4 -43 2 -49 -9 -39 -10 10 -11 15 -2 21 8 6 7 10 -3
14 -11 5 -11 7 0 15 12 8 11 9 -1 6 -8 -3 -18 -15 -22 -29 -4 -16 -6 -7 -6 29
1 35 6 52 14 52 7 0 15 -4 19 -9z m523 -136 c-2 -15 -6 -21 -11 -16 -6 6 -7
17 -4 25 9 24 17 19 15 -9z m1040 -50 l1 -20 -9 20 c-5 11 -8 34 -8 50 l0 30
8 -30 c4 -16 8 -39 8 -50z m-1541 59 c-3 -3 -12 -4 -19 -1 -8 3 -5 6 6 6 11 1
17 -2 13 -5z m583 -9 c0 -12 -19 -12 -23 0 -4 9 -1 12 9 8 7 -3 14 -7 14 -8z
m-600 -55 c-12 -22 -21 -26 -17 -7 2 10 17 26 25 27 1 0 -2 -9 -8 -20z m533
-83 c-3 -19 -1 -27 6 -23 10 7 6 -15 -8 -39 -8 -13 -18 39 -19 95 -1 43 -1 44
12 21 8 -14 12 -38 9 -54z m-526 36 c-4 -30 -37 -46 -37 -18 0 9 4 14 9 11 5
-3 11 3 14 14 8 30 18 24 14 -7z m1563 -15 c0 -39 -7 -33 -15 11 -4 21 -2 30
5 26 5 -3 10 -20 10 -37z m-880 22 c0 -5 -6 -9 -12 -7 -8 1 -12 -6 -10 -18 3
-15 1 -17 -7 -9 -14 13 -4 44 15 44 8 0 14 -4 14 -10z m50 -21 c0 -5 -7 -9
-15 -9 -9 0 -12 6 -9 15 6 15 24 11 24 -6z m750 -3 c0 -2 -8 -10 -17 -17 -16
-13 -17 -12 -4 4 13 16 21 21 21 13z m-1447 -36 c3 -11 1 -18 -4 -14 -5 3 -9
12 -9 20 0 20 7 17 13 -6z m-49 -49 c-6 -6 -11 1 -18 29 l-7 25 15 -25 c8 -14
12 -27 10 -29z m1575 22 c0 -25 -1 -25 -8 -8 -5 11 -7 23 -4 28 8 14 13 7 12
-20z m-79 -17 c0 -2 -7 -6 -15 -10 -8 -3 -15 -1 -15 4 0 6 7 10 15 10 8 0 15
-2 15 -4z m-1425 -18 c5 4 6 0 2 -9 -3 -9 -2 -21 1 -25 4 -5 0 -1 -10 8 -9 10
-21 18 -27 18 -6 0 -11 5 -11 10 0 7 6 7 19 1 10 -6 22 -7 26 -3z m1405 -13
c0 -2 -7 -5 -15 -9 -9 -3 -15 0 -15 9 0 9 6 12 15 9 8 -4 15 -7 15 -9z m61 -2
c13 -16 12 -17 -3 -4 -10 7 -18 15 -18 17 0 8 8 3 21 -13z m-1491 -13 c0 -5
-4 -10 -10 -10 -5 0 -10 5 -10 10 0 6 5 10 10 10 6 0 10 -4 10 -10z m76 -26
c-5 -14 -9 -15 -19 -5 -9 9 -9 14 3 21 18 11 24 6 16 -16z m560 1 c4 -8 14
-15 23 -15 13 -1 12 -3 -4 -12 -11 -6 -23 -15 -26 -20 -8 -13 -48 -18 -54 -7
-4 5 6 9 20 9 15 0 24 4 20 10 -4 6 -2 9 3 8 6 -2 10 0 11 5 3 20 0 26 -16 30
-17 4 -17 5 0 6 10 0 20 -6 23 -14z m851 -1 c-3 -3 -12 -4 -19 -1 -8 3 -5 6 6
6 11 1 17 -2 13 -5z m33 -7 c0 -7 -6 -22 -14 -33 -14 -19 -14 -19 -13 1 2 17
16 43 25 45 1 0 2 -6 2 -13z m-1425 -17 c-3 -5 -12 -10 -18 -10 -7 0 -6 4 3
10 19 12 23 12 15 0z m-58 -16 c-3 -3 -12 -4 -19 -1 -8 3 -5 6 6 6 11 1 17 -2
13 -5z m73 -17 c0 -5 -7 -6 -16 -3 -8 3 -12 2 -9 -3 3 -5 1 -12 -5 -16 -10 -6
-15 17 -5 27 9 8 35 5 35 -5z m50 9 c0 -2 -9 -6 -20 -9 -11 -3 -18 -1 -14 4 5
9 34 13 34 5z m235 -50 c-9 -13 -14 -37 -13 -54 2 -17 -1 -31 -7 -30 -5 0 -9
4 -7 9 1 5 -3 9 -9 9 -8 0 -7 6 2 17 10 11 10 14 2 9 -7 -4 -13 -2 -13 3 0 6
5 11 10 11 6 0 10 6 10 13 0 15 20 37 32 37 5 0 2 -11 -7 -24z m209 8 c5 -14
4 -15 -9 -4 -17 14 -19 20 -6 20 5 0 12 -7 15 -16z m140 -8 c-17 -8 -40 -27
-52 -42 -15 -21 -21 -24 -22 -12 0 22 56 68 83 68 18 -1 17 -3 -9 -14z m-634
-94 c47 -60 103 -91 165 -92 43 0 69 14 121 62 l32 30 16 -23 c10 -14 16 -44
16 -75 0 -123 13 -234 27 -234 8 0 11 -5 8 -10 -4 -6 -12 -7 -18 -3 -7 4 -4
-5 6 -20 9 -15 13 -27 8 -27 -5 0 -11 -20 -13 -45 -3 -42 -1 -48 34 -75 20
-17 38 -30 40 -30 10 0 5 40 -5 40 -7 0 -4 5 6 11 9 5 17 16 17 24 0 8 5 17
12 21 8 5 9 2 5 -9 -4 -10 -2 -16 6 -14 7 1 11 -6 11 -15 -1 -13 6 -16 31 -14
18 2 39 7 47 12 10 6 11 5 1 -8 -7 -8 -9 -18 -5 -23 4 -4 -3 -2 -15 4 -15 8
-23 8 -23 1 0 -5 6 -10 13 -10 9 0 9 -2 -1 -9 -11 -6 -10 -9 5 -13 21 -6 42
11 36 29 -2 6 1 15 8 19 9 5 10 2 6 -9 -8 -22 1 -21 41 3 36 22 40 35 16 48
-12 7 -13 11 -5 16 7 4 17 3 24 -3 8 -6 18 -6 27 -1 20 13 33 12 25 0 -7 -11
36 -7 56 6 7 4 1 -7 -11 -24 -13 -17 -29 -33 -37 -36 -8 -3 -11 -10 -8 -16 3
-5 0 -10 -9 -10 -8 0 -23 -12 -34 -27 -19 -26 -49 -25 -38 2 2 7 -2 16 -10 19
-19 7 -57 -12 -49 -25 4 -5 -9 -9 -28 -9 -29 0 -36 4 -41 25 -4 14 -11 23 -17
20 -7 -5 -6 -12 2 -21 10 -12 9 -13 -4 -8 -13 5 -15 1 -11 -18 3 -12 6 -29 6
-37 1 -8 10 -16 20 -19 10 -2 15 -9 12 -14 -4 -6 3 -5 14 1 15 8 23 8 28 0 8
-13 -13 -29 -39 -29 -10 0 -15 -4 -12 -10 6 -10 -18 -14 -60 -11 -19 1 -19 1
-2 -9 9 -6 15 -17 11 -23 -3 -7 1 -4 9 6 15 18 47 23 47 7 0 -5 -6 -10 -12
-11 -7 0 -4 -4 7 -9 31 -13 36 -11 23 10 -10 16 -10 22 1 32 11 11 13 9 8 -10
-5 -20 -2 -23 14 -19 10 3 22 0 26 -6 3 -7 3 -9 -1 -5 -4 3 -16 -1 -27 -10
-14 -12 -16 -18 -6 -25 8 -6 6 -7 -6 -3 -10 3 -24 6 -30 6 -7 0 -6 4 3 10 12
8 10 10 -9 10 -18 0 -21 -3 -12 -13 6 -8 7 -18 3 -22 -4 -5 -1 -5 5 -1 7 4 21
2 30 -3 14 -8 10 -10 -20 -6 -35 4 -72 27 -61 38 3 2 -5 7 -16 10 -18 5 -19 3
-8 -10 11 -14 11 -15 -7 -6 -11 6 -27 8 -35 6 -9 -3 -7 1 5 11 11 8 16 16 10
16 -5 1 -18 3 -27 5 -10 2 -17 0 -17 -3 3 -21 -4 -31 -27 -36 -23 -6 -24 -9
-12 -24 11 -15 11 -16 -3 -5 -9 7 -19 10 -22 7 -3 -3 -16 1 -29 10 -12 9 -32
17 -43 17 -16 1 -17 2 -3 6 9 2 27 -1 40 -7 22 -11 22 -11 3 5 -11 9 -31 14
-44 12 -42 -8 -54 2 -36 29 8 13 11 24 5 24 -5 0 -10 -4 -10 -10 0 -5 -8 -7
-17 -4 -15 5 -16 4 -3 -5 13 -9 13 -11 -2 -11 -9 0 -18 6 -21 13 -2 6 -3 4 -1
-6 2 -14 -2 -18 -17 -14 -10 3 -19 0 -19 -5 0 -6 12 -8 28 -5 16 3 35 0 46 -9
12 -8 15 -14 7 -14 -11 0 -11 -3 -1 -15 6 -8 9 -19 5 -24 -3 -6 -1 -21 6 -33
9 -19 9 -21 -1 -11 -9 8 -19 9 -31 3 -12 -7 -20 -6 -25 2 -4 6 -3 8 2 5 6 -3
16 -1 24 4 12 7 10 10 -10 16 l-25 7 30 7 c29 6 29 7 -8 8 -24 1 -36 5 -32 11
4 6 16 8 28 4 21 -6 21 -6 4 12 -17 18 -19 18 -31 2 -7 -10 -16 -15 -20 -11
-4 4 -4 0 0 -10 7 -19 -6 -23 -22 -7 -15 15 -47 1 -34 -15 5 -6 7 -14 4 -17
-2 -3 2 -8 9 -11 11 -4 13 0 10 14 -8 28 6 23 17 -6 6 -16 17 -25 30 -25 12 0
19 -4 15 -10 -3 -5 -13 -6 -21 -3 -14 5 -14 3 -2 -18 7 -13 18 -28 23 -32 6
-4 -2 -5 -17 -1 -18 4 -28 2 -28 -5 0 -6 9 -11 20 -11 11 0 20 -4 20 -9 0 -5
-10 -7 -22 -4 -22 5 -22 5 -3 -10 10 -8 26 -12 34 -9 14 5 14 4 1 -10 -14 -15
-17 -15 -33 0 -16 15 -17 15 -12 -1 4 -9 15 -19 26 -22 19 -6 27 -25 10 -25
-12 0 -21 -27 -15 -44 3 -8 12 -12 21 -9 11 4 14 -1 11 -23 -2 -24 -7 -29 -28
-26 -22 2 -23 1 -7 -8 9 -6 17 -16 17 -21 0 -6 -4 -7 -10 -4 -5 3 -10 2 -10
-4 0 -5 9 -13 21 -16 12 -4 18 -12 15 -21 -3 -8 1 -14 9 -14 7 0 17 -5 21 -11
5 -8 -2 -10 -22 -6 -27 5 -27 4 -9 -9 10 -8 14 -14 8 -14 -6 0 -23 -3 -39 -6
l-29 -6 0 114 c0 108 -2 116 -33 175 -17 34 -47 115 -64 180 l-33 118 -3 358
c-1 214 1 357 7 355 5 -1 28 -27 51 -56z m220 30 c0 -4 -9 -13 -20 -19 -15
-10 -21 -10 -26 0 -4 6 -4 9 1 5 4 -4 14 -1 22 7 16 17 23 19 23 7z m426 -7
c-11 -8 -25 -15 -30 -15 -6 1 0 7 14 15 32 19 40 18 16 0z m-596 1 c0 -3 -4
-8 -10 -11 -5 -3 -10 -1 -10 4 0 6 5 11 10 11 6 0 10 -2 10 -4z m20 -16 c0 -5
-5 -10 -11 -10 -5 0 -7 5 -4 10 3 6 8 10 11 10 2 0 4 -4 4 -10z m446 -5 c-8
-8 -17 -15 -20 -15 -3 0 -3 7 0 15 4 8 13 15 21 15 12 0 12 -2 -1 -15z m-346
-16 c0 -5 -4 -9 -8 -9 -5 0 -9 7 -9 15 0 8 4 12 9 9 4 -3 8 -9 8 -15z m69 -5
c-14 -18 -24 -11 -15 11 3 9 11 13 16 10 8 -5 7 -11 -1 -21z m267 -52 c-7 -20
-12 -45 -10 -54 1 -10 -2 -20 -7 -24 -11 -6 -12 -41 -1 -47 4 -2 1 -2 -7 0 -9
2 -11 -2 -7 -14 6 -14 4 -15 -4 -7 -15 15 -22 94 -9 94 6 0 7 -4 4 -10 -3 -5
-1 -10 4 -10 6 0 11 9 11 20 0 12 -5 17 -14 14 -8 -3 -17 0 -22 7 -4 7 -3 10
2 6 5 -3 18 1 29 9 16 12 16 14 3 14 -9 0 -20 5 -24 12 -4 7 -3 8 4 4 6 -4 19
2 29 13 24 29 34 16 19 -27z m199 -42 c3 -5 2 -10 -4 -10 -5 0 -13 5 -16 10
-3 6 -2 10 4 10 5 0 13 -4 16 -10z m-30 -28 c0 -17 -13 -32 -27 -32 -5 0 -8 7
-8 15 0 8 5 15 10 15 6 0 10 8 10 17 0 9 3 13 7 9 4 -4 8 -15 8 -24z m-236
-10 c17 -31 7 -56 -22 -57 -14 -1 -24 2 -21 7 3 4 11 8 18 8 8 0 14 11 14 25
0 13 -4 22 -9 19 -5 -3 -9 0 -9 5 0 17 18 13 29 -7z m1509 -42 c3 -9 -3 -11
-20 -8 -22 4 -24 2 -20 -21 3 -14 1 -22 -4 -18 -15 14 -13 42 3 55 20 14 35
12 41 -8z m66 9 c-4 -8 0 -9 15 -4 12 4 21 2 21 -4 0 -6 -13 -11 -30 -11 -29
0 -38 9 -23 23 11 11 25 8 17 -4z m94 -27 c3 -11 0 -12 -16 -3 -10 6 -23 7
-27 3 -5 -4 -5 -1 -1 6 10 16 38 12 44 -6z m-1684 -38 c3 -8 2 -12 -4 -9 -6 3
-10 10 -10 16 0 14 7 11 14 -7z m54 -11 c-16 -19 -19 -43 -6 -43 6 0 5 -7 -3
-16 -7 -9 -14 -22 -15 -30 -2 -14 -42 -74 -49 -74 -6 0 7 34 15 40 13 9 23 53
11 46 -6 -4 -11 -15 -12 -24 0 -14 -2 -13 -9 3 -11 25 -12 44 -2 29 5 -8 13
-3 26 14 19 25 19 25 0 19 -15 -5 -13 -2 6 14 14 12 26 25 26 30 3 19 4 20 14
14 8 -5 7 -12 -2 -22z m1679 -3 c13 -25 13 -25 7 -1 l-6 24 30 -22 c40 -28 92
-108 85 -128 -5 -12 -3 -14 7 -8 10 6 12 4 7 -8 -3 -10 -2 -17 4 -17 6 0 7 -5
3 -12 -6 -9 -9 -9 -12 0 -2 7 -8 10 -12 7 -5 -3 -12 0 -16 6 -4 8 -3 9 4 5 7
-4 12 -3 12 2 0 17 -13 22 -29 10 -13 -10 -14 -10 -3 2 16 19 15 31 -3 24 -10
-4 -18 2 -24 17 -11 31 -5 38 14 13 15 -20 19 -16 9 10 -3 9 -14 16 -24 16
-10 0 -21 7 -24 16 -3 8 -9 13 -13 11 -5 -2 -21 11 -37 30 -25 29 -26 34 -10
31 10 -2 25 -14 31 -28z m-1770 -35 c0 -8 -4 -15 -9 -15 -10 0 -11 14 -1 23 9
10 10 9 10 -8z m263 -5 c0 -5 -5 -10 -11 -10 -5 0 -7 5 -4 10 3 6 8 10 11 10
2 0 4 -4 4 -10z m60 -24 c0 -3 -4 -8 -10 -11 -5 -3 -10 -1 -10 4 0 6 5 11 10
11 6 0 10 -2 10 -4z m-42 -13 c-10 -2 -18 -9 -18 -14 0 -5 -5 -9 -11 -9 -16 0
-36 -24 -32 -37 2 -6 -4 -13 -14 -16 -12 -3 -8 -5 10 -6 15 0 27 -6 27 -12 0
-6 -8 -9 -18 -7 -10 3 -24 -2 -32 -10 -12 -13 -10 -14 15 -8 25 6 27 5 16 -8
-10 -12 -18 -13 -32 -5 -10 5 -19 7 -19 4 0 -4 -5 -3 -11 1 -7 4 -7 10 -1 16
6 6 8 17 5 24 -3 8 0 14 6 14 5 0 22 17 36 37 14 21 25 34 25 30 0 -4 8 -3 18
2 9 6 24 10 32 10 11 -1 10 -3 -2 -6z m-138 -17 c0 -2 -8 -10 -17 -17 -16 -13
-17 -12 -4 4 13 16 21 21 21 13z m-47 -26 c-3 -11 -9 -23 -14 -26 -5 -3 -6 3
-2 12 5 13 3 15 -8 9 -12 -8 -12 -6 0 8 18 23 30 21 24 -3z m197 16 c0 -3 -4
-8 -10 -11 -5 -3 -10 -1 -10 4 0 6 5 11 10 11 6 0 10 -2 10 -4z m-129 -18 c0
-10 2 -10 6 0 2 6 9 10 14 6 18 -10 -2 -24 -27 -18 -13 3 -24 2 -24 -3 0 -4
-10 -14 -22 -22 -20 -13 -22 -12 -11 1 7 8 9 19 5 23 -4 5 -2 5 4 2 7 -4 17 0
24 8 15 18 30 19 31 3z m1509 5 c0 -5 -10 -19 -21 -33 l-20 -25 16 33 c15 30
25 41 25 25z m-1590 -47 c0 -2 -7 -7 -16 -10 -8 -3 -12 -2 -9 4 6 10 25 14 25
6z m1420 -11 c0 -8 7 -15 16 -15 10 0 14 -6 10 -15 -3 -8 -1 -15 4 -15 5 0 14
-9 20 -20 8 -16 7 -24 -4 -36 -23 -22 -56 -2 -56 35 0 16 -7 34 -15 41 -20 16
-19 34 1 26 8 -3 12 -2 9 4 -3 6 -1 10 4 10 6 0 11 -7 11 -15z m146 -32 c-2
-15 -8 -29 -15 -31 -12 -4 -13 3 -5 36 9 31 23 28 20 -5z m258 2 c-4 -8 -11
-12 -16 -9 -6 4 -5 10 3 15 19 12 19 11 13 -6z m-1659 -15 c3 -5 -1 -10 -9
-10 -9 0 -16 5 -16 10 0 6 4 10 9 10 6 0 13 -4 16 -10z m1583 -45 c-3 -3 -9 2
-12 12 -6 14 -5 15 5 6 7 -7 10 -15 7 -18z m-148 5 c0 -5 -5 -10 -11 -10 -5 0
-7 5 -4 10 3 6 8 10 11 10 2 0 4 -4 4 -10z m140 -32 c0 -4 -4 -8 -10 -8 -5 0
-10 4 -10 9 0 5 -3 18 -6 28 -5 16 -4 16 10 -1 9 -11 16 -23 16 -28z m-118 8
c4 -19 1 -22 -14 -18 -21 5 -23 13 -6 30 16 16 15 16 20 -12z m31 4 c-3 -12
-8 -19 -11 -16 -5 6 5 36 12 36 2 0 2 -9 -1 -20z m55 -7 c6 -12 5 -28 -3 -46
-11 -26 -12 -27 -26 -11 -9 11 -9 15 -1 10 8 -5 12 0 11 16 0 13 -3 17 -6 10
-6 -15 -23 -6 -23 13 0 9 6 12 15 9 8 -4 15 -1 15 5 0 16 8 13 18 -6z m-1551
-8 c0 -8 -5 -11 -10 -8 -6 4 -8 0 -4 -10 3 -10 3 -17 -2 -17 -18 0 -20 15 -4
32 19 22 20 22 20 3z m83 -20 c-7 -8 -18 -15 -24 -15 -6 0 -2 7 8 15 25 19 32
19 16 0z m-148 -2 c-10 -4 -9 -10 5 -26 10 -12 11 -17 3 -10 -15 11 -19 13
-42 13 -8 0 -5 7 6 15 11 8 25 15 30 14 6 0 5 -3 -2 -6z m1518 -3 c0 -5 -5
-10 -11 -10 -5 0 -7 5 -4 10 3 6 8 10 11 10 2 0 4 -4 4 -10z m-829 -9 c-7 -5
-10 -14 -7 -20 4 -6 0 -11 -8 -11 -9 0 -16 4 -16 8 0 12 22 32 35 32 5 0 4 -4
-4 -9z m202 -13 c-12 -13 -24 -38 -28 -57 -6 -29 -9 -32 -17 -17 -7 12 -7 21
1 29 6 6 11 22 11 35 0 13 4 21 8 18 4 -2 14 -1 22 5 24 14 25 10 3 -13z m407
-22 c-10 -13 -10 -16 3 -16 9 0 19 -5 23 -12 5 -7 2 -9 -9 -5 -9 3 -17 3 -19
-1 -2 -5 -20 -18 -41 -31 -29 -18 -35 -26 -25 -32 9 -6 9 -9 1 -9 -6 0 -19 8
-29 17 -26 27 -44 25 -45 -5 l-1 -27 -14 30 -14 30 2 -34 c2 -21 -2 -36 -10
-39 -7 -2 -12 0 -11 5 3 20 -2 44 -8 40 -5 -3 -16 -2 -26 2 -16 6 -15 9 5 39
15 20 29 30 38 26 8 -3 28 -8 44 -11 25 -5 28 -3 23 11 -6 14 -3 15 13 6 19
-10 24 -6 21 14 -1 5 5 6 14 3 8 -4 15 -1 15 4 0 7 9 9 21 6 15 -4 18 -2 10 7
-16 19 0 29 18 12 12 -12 12 -18 1 -30z m-318 10 c6 4 8 -1 6 -11 -1 -10 -10
-20 -18 -22 -13 -4 -13 -3 0 6 10 7 11 11 3 11 -7 0 -13 8 -12 18 0 10 3 12 6
4 2 -6 9 -9 15 -6z m-878 -11 c-4 -8 -11 -15 -16 -15 -6 0 -5 6 2 15 7 8 14
15 16 15 2 0 1 -7 -2 -15z m501 5 c-3 -5 -1 -10 5 -10 7 0 5 -7 -4 -16 -9 -8
-13 -21 -9 -27 4 -7 -1 -6 -11 2 -9 8 -13 17 -8 20 5 3 11 14 15 24 3 9 9 17
12 17 4 0 3 -4 0 -10z m735 6 c0 -3 -4 -8 -10 -11 -5 -3 -10 -1 -10 4 0 6 5
11 10 11 6 0 10 -2 10 -4z m-1116 -12 c18 -7 22 -34 5 -34 -5 0 -8 -4 -5 -9 7
-11 -22 -23 -35 -15 -5 3 -9 10 -9 16 0 7 5 7 14 -1 11 -9 15 -8 20 5 11 28 7
36 -14 31 -11 -3 -23 -1 -26 4 -6 10 26 12 50 3z m329 -8 c4 -10 1 -13 -9 -9
-8 3 -14 -1 -14 -10 0 -9 -4 -19 -10 -22 -5 -3 -8 1 -5 9 3 9 7 23 10 31 6 19
21 19 28 1z m-490 -13 c-7 -2 -21 -2 -30 0 -10 3 -4 5 12 5 17 0 24 -2 18 -5z
m67 -13 c-8 -15 -8 -20 1 -20 7 0 10 -3 6 -6 -3 -3 -10 -3 -15 0 -12 7 -4 46
10 46 5 0 4 -9 -2 -20z m36 0 c0 -20 -7 -25 -19 -13 -4 3 -2 12 4 20 15 17 15
17 15 -7z m335 -3 c-10 -9 -11 -8 -5 6 3 10 9 15 12 12 3 -3 0 -11 -7 -18z
m579 17 c0 -3 -7 -12 -15 -20 -16 -17 -18 -14 -9 10 6 15 24 23 24 10z m490
-4 c0 -5 -5 -10 -11 -10 -5 0 -7 5 -4 10 3 6 8 10 11 10 2 0 4 -4 4 -10z
m-1200 -10 c0 -5 -2 -10 -4 -10 -3 0 -8 5 -11 10 -3 6 -1 10 4 10 6 0 11 -4
11 -10z m-330 -9 c0 8 6 5 16 -7 11 -13 17 -15 20 -6 7 16 21 15 27 -2 4 -9
-4 -15 -23 -18 -16 -2 -29 -2 -28 1 2 19 -4 24 -12 11 -7 -11 -10 -11 -10 -2
0 7 -4 10 -10 7 -5 -3 -10 1 -10 11 0 13 3 14 15 4 12 -10 15 -10 15 1z m714
-26 c-4 -8 -8 -15 -10 -15 -2 0 -4 7 -4 15 0 8 4 15 10 15 5 0 7 -7 4 -15z
m-603 -29 c-6 -7 -8 -15 -5 -18 3 -3 0 -9 -7 -14 -8 -4 -10 -3 -5 4 5 8 -1 12
-16 13 -17 1 -18 3 -5 6 9 2 15 8 13 12 -3 4 4 8 15 8 16 2 18 -1 10 -11z
m114 4 c-3 -5 -12 -10 -18 -10 -7 0 -6 4 3 10 19 12 23 12 15 0z m348 -5 c-3
-9 -8 -14 -10 -11 -3 3 -2 9 2 15 9 16 15 13 8 -4z m667 5 c0 -5 -2 -10 -4
-10 -3 0 -8 5 -11 10 -3 6 -1 10 4 10 6 0 11 -4 11 -10z m-624 -20 c5 1 10 -3
12 -9 2 -6 -5 -11 -15 -11 -12 0 -19 8 -20 22 -2 16 0 19 6 10 5 -8 12 -13 17
-12z m-201 -8 c-3 -3 -11 0 -18 7 -9 10 -8 11 6 5 10 -3 15 -9 12 -12z m-801
-8 c9 -23 7 -44 -4 -44 -5 0 -7 6 -4 14 3 8 1 17 -5 21 -13 8 -14 25 -2 25 5
0 12 -7 15 -16z m693 3 c0 -7 -9 -13 -19 -13 -18 0 -18 1 -2 13 10 7 18 13 19
13 1 0 2 -6 2 -13z m-894 -209 c32 -54 44 -141 33 -232 l-7 -56 -50 0 -49 0 1
253 1 252 21 -85 c12 -47 35 -106 50 -132z m342 202 c3 -5 1 -10 -4 -10 -6 0
-11 5 -11 10 0 6 2 10 4 10 3 0 8 -4 11 -10z m628 3 c-7 -2 -19 -2 -25 0 -7 3
-2 5 12 5 14 0 19 -2 13 -5z m134 -15 c-3 -8 -6 -5 -6 6 -1 11 2 17 5 13 3 -3
4 -12 1 -19z m603 12 c0 -5 -5 -10 -11 -10 -5 0 -7 5 -4 10 3 6 8 10 11 10 2
0 4 -4 4 -10z m35 -10 c3 -5 1 -10 -4 -10 -6 0 -11 5 -11 10 0 6 2 10 4 10 3
0 8 -4 11 -10z m395 -240 l0 -240 -724 0 -725 0 16 46 c12 35 128 246 150 273
6 8 170 -48 263 -89 124 -54 205 -78 295 -85 92 -8 136 1 240 50 39 18 86 38
106 44 20 6 42 22 49 37 25 46 118 112 195 138 28 9 68 27 90 40 22 13 41 25
43 25 1 1 2 -107 2 -239z m-2033 210 c2 -19 -8 -26 -20 -14 -7 7 2 34 12 34 4
0 7 -9 8 -20z m497 11 c3 -4 -4 -7 -14 -6 -27 2 -33 10 -10 12 11 1 22 -2 24
-6z m71 -11 c-3 -5 -14 -10 -23 -9 -14 0 -13 2 3 9 27 11 27 11 20 0z m869
-29 c-3 -3 -15 6 -27 18 l-22 24 27 -19 c14 -10 24 -21 22 -23z m-1370 -9 c2
-4 -4 -9 -15 -9 -11 -1 -17 2 -14 8 7 11 22 12 29 1z m1284 -4 c7 -7 11 -23
11 -37 -1 -20 -3 -21 -6 -6 -4 22 -53 51 -53 32 0 -6 -3 -8 -6 -4 -10 10 6 27
25 27 9 0 22 -5 29 -12z m-1241 -4 c-3 -3 -12 -4 -19 -1 -8 3 -5 6 6 6 11 1
17 -2 13 -5z m1323 -3 c0 -9 -24 -21 -41 -21 -5 0 -9 5 -9 11 0 6 7 9 15 5 8
-3 15 -1 15 4 0 6 5 10 10 10 6 0 10 -4 10 -9z m35 -29 c-11 -11 -34 8 -28 24
6 15 7 15 20 -1 7 -10 11 -21 8 -23z m-1069 -94 c-8 -60 -26 -228 -26 -255 0
-22 -3 -23 -109 -23 l-108 0 3 47 c2 27 6 92 10 146 3 53 9 97 12 98 4 0 50 6
102 13 52 8 101 14 109 15 10 1 12 -9 7 -41z m-381 -48 c-3 -5 -12 -10 -18
-10 -7 0 -6 4 3 10 19 12 23 12 15 0z"/>
<path d="M397 2339 c7 -7 15 -10 18 -7 3 3 -2 9 -12 12 -14 6 -15 5 -6 -5z"/>
<path d="M1246 1967 c5 -14 2 -16 -12 -11 -11 4 -16 4 -12 0 3 -4 14 -9 23
-10 9 -1 20 -9 25 -16 5 -8 11 -12 14 -10 2 3 -7 19 -20 35 -14 17 -22 22 -18
12z"/>
<path d="M1290 1950 c6 -11 13 -20 16 -20 2 0 0 9 -6 20 -6 11 -13 20 -16 20
-2 0 0 -9 6 -20z"/>
<path d="M1340 1941 c0 -7 -4 -9 -10 -6 -5 3 -10 1 -10 -4 0 -6 4 -11 9 -11
13 0 25 20 17 27 -3 4 -6 1 -6 -6z"/>
<path d="M944 1908 c-5 -7 -3 -8 6 -3 10 6 11 0 6 -30 -5 -27 -4 -40 6 -46 18
-12 28 -11 28 1 0 6 -7 10 -15 10 -19 0 -19 5 0 33 13 20 13 24 -5 35 -14 8
-21 9 -26 0z"/>
<path d="M1256 1864 c3 -18 1 -23 -7 -18 -8 5 -9 3 -4 -6 6 -10 11 -9 22 5 13
18 13 18 13 0 0 -10 3 -16 6 -12 9 9 -5 45 -21 50 -10 4 -12 -1 -9 -19z"/>
<path d="M987 1866 c-4 -10 -1 -13 8 -9 8 3 12 9 9 14 -7 12 -11 11 -17 -5z"/>
<path d="M1306 1867 c3 -10 9 -15 12 -12 3 3 0 11 -7 18 -10 9 -11 8 -5 -6z"/>
<path d="M1016 1805 c4 -8 11 -15 16 -15 6 0 5 6 -2 15 -7 8 -14 15 -16 15 -2
0 -1 -7 2 -15z"/>
<path d="M978 1803 c7 -3 16 -2 19 1 4 3 -2 6 -13 5 -11 0 -14 -3 -6 -6z"/>
<path d="M1480 1783 c0 -6 5 -15 10 -18 6 -3 10 -14 10 -23 0 -12 10 -18 34
-19 30 -3 33 -1 29 21 -4 17 -10 22 -24 19 -10 -3 -16 -9 -13 -14 3 -5 0 -9
-5 -9 -17 0 -13 18 7 30 14 9 13 10 -7 4 -15 -4 -27 -1 -32 7 -6 10 -9 10 -9
2z"/>
<path d="M1250 1777 c0 -2 6 -10 14 -16 11 -9 16 -9 22 1 4 7 4 10 -1 6 -4 -4
-14 -3 -22 3 -7 6 -13 9 -13 6z"/>
<path d="M1464 1749 c-3 -6 -1 -16 5 -22 8 -8 11 -5 11 11 0 24 -5 28 -16 11z"/>
<path d="M1047 1739 c13 -12 90 -23 78 -11 -5 6 -27 13 -48 15 -21 3 -35 1
-30 -4z"/>
<path d="M1145 1721 c3 -5 1 -12 -5 -16 -13 -8 -13 -25 1 -25 5 0 7 5 4 10 -3
6 -1 10 4 10 6 0 11 7 11 15 0 8 -5 15 -11 15 -5 0 -8 -4 -4 -9z"/>
<path d="M1541 1694 c0 -11 3 -14 6 -6 3 7 2 16 -1 19 -3 4 -6 -2 -5 -13z"/>
<path d="M1075 1671 c-3 -5 -1 -12 5 -16 5 -3 10 1 10 9 0 18 -6 21 -15 7z"/>
<path d="M1565 1659 c-4 -6 -5 -12 -2 -15 2 -3 7 2 10 11 7 17 1 20 -8 4z"/>
<path d="M1325 1651 c-3 -6 -1 -11 4 -11 6 0 11 -7 11 -15 0 -8 5 -15 10 -15
7 0 7 8 -1 23 -16 30 -16 30 -24 18z"/>
<path d="M1262 1620 c0 -14 2 -19 5 -12 2 6 2 18 0 25 -3 6 -5 1 -5 -13z"/>
<path d="M1205 1619 c-4 -6 -5 -12 -2 -15 2 -3 7 2 10 11 7 17 1 20 -8 4z"/>
<path d="M1287 1617 c-3 -8 1 -14 8 -14 7 0 11 6 8 14 -3 7 -6 13 -8 13 -2 0
-5 -6 -8 -13z"/>
<path d="M1380 1616 c0 -2 7 -9 15 -16 9 -7 15 -8 15 -2 0 5 -7 12 -15 16 -8
3 -15 4 -15 2z"/>
<path d="M1594 1602 c-17 -12 -24 -41 -11 -48 7 -4 9 -3 4 1 -4 5 0 19 8 32
16 25 16 27 -1 15z"/>
<path d="M1168 1593 c7 -3 16 -2 19 1 4 3 -2 6 -13 5 -11 0 -14 -3 -6 -6z"/>
<path d="M1430 1585 c0 -8 5 -15 10 -15 6 0 10 7 10 15 0 8 -4 15 -10 15 -5 0
-10 -7 -10 -15z"/>
<path d="M1476 1558 c4 -19 1 -29 -13 -37 -10 -6 -13 -11 -6 -11 6 0 15 5 18
10 4 6 11 8 16 5 5 -3 6 2 2 11 -5 13 -3 15 7 9 9 -5 11 -4 6 3 -4 7 -2 12 4
12 6 0 8 5 5 10 -3 6 -11 10 -16 10 -6 0 -7 -4 -4 -10 3 -5 2 -10 -4 -10 -5 0
-12 6 -15 13 -3 6 -3 0 0 -15z"/>
<path d="M1077 1558 c2 -5 13 -8 23 -8 10 0 21 3 23 8 3 4 -8 7 -23 7 -15 0
-26 -3 -23 -7z"/>
<path d="M1536 1547 c3 -10 9 -15 12 -12 3 3 0 11 -7 18 -10 9 -11 8 -5 -6z"/>
<path d="M1104 1523 c20 -24 46 -31 46 -12 0 5 -5 7 -11 4 -5 -4 -20 1 -32 12
l-22 18 19 -22z"/>
<path d="M1520 1527 c0 -8 7 -17 15 -21 8 -3 15 -3 15 0 0 3 -7 12 -15 20 -13
13 -15 13 -15 1z"/>
<path d="M1600 1534 c0 -1 8 -8 17 -15 11 -10 14 -10 9 -1 -4 6 -3 12 1 12 5
0 15 -6 22 -12 10 -11 11 -10 6 4 -4 11 -16 17 -31 16 -13 -1 -24 -3 -24 -4z"/>
<path d="M1320 1519 c0 -5 5 -7 10 -4 6 3 10 8 10 11 0 2 -4 4 -10 4 -5 0 -10
-5 -10 -11z"/>
<path d="M1386 1521 c-3 -4 6 -13 19 -19 30 -14 31 -12 5 10 -10 10 -22 14
-24 9z"/>
<path d="M1579 1523 c-1 -5 -2 -15 -3 -23 0 -8 -9 -15 -18 -15 -20 0 -37 -15
-17 -16 8 0 36 -1 62 -2 27 -2 51 2 54 8 4 5 2 7 -2 2 -5 -4 -20 3 -34 15 -14
13 -19 15 -12 6 8 -12 9 -18 3 -18 -14 0 -34 35 -25 44 3 3 3 6 0 6 -4 0 -8
-3 -8 -7z"/>
<path d="M1063 1493 c-16 -6 -17 -43 -2 -43 5 0 7 4 4 10 -3 6 1 7 9 4 9 -3
16 -13 16 -21 0 -8 -5 -11 -12 -7 -6 4 -8 3 -4 -4 3 -6 2 -22 -4 -36 -5 -14
-6 -25 -2 -25 21 4 22 -3 1 -21 -23 -18 -23 -19 -4 -20 l20 -1 -20 -9 c-19 -8
-19 -9 1 -9 31 -1 55 56 28 66 -8 3 -14 9 -14 14 0 4 6 6 13 4 8 -4 12 7 11
36 -1 42 -20 70 -41 62z"/>
<path d="M1175 1490 c3 -5 8 -10 11 -10 2 0 4 5 4 10 0 6 -5 10 -11 10 -5 0
-7 -4 -4 -10z"/>
<path d="M1160 1476 c0 -2 8 -10 18 -17 15 -13 16 -12 3 4 -13 16 -21 21 -21
13z"/>
<path d="M1342 1460 c0 -14 2 -19 5 -12 2 6 2 18 0 25 -3 6 -5 1 -5 -13z"/>
<path d="M1710 1470 c-8 -5 -12 -12 -9 -15 4 -3 12 1 19 10 14 17 11 19 -10 5z"/>
<path d="M1010 1459 c0 -5 5 -7 10 -4 6 3 10 8 10 11 0 2 -4 4 -10 4 -5 0 -10
-5 -10 -11z"/>
<path d="M1600 1450 c0 -6 -4 -9 -9 -5 -6 3 -9 -4 -8 -15 1 -11 2 -20 2 -20 9
0 31 41 25 45 -6 4 -10 1 -10 -5z"/>
<path d="M1045 1430 c-3 -5 -1 -10 4 -10 6 0 11 5 11 10 0 6 -2 10 -4 10 -3 0
-8 -4 -11 -10z"/>
<path d="M1640 1426 c-15 -19 11 -28 27 -11 9 10 9 14 -2 19 -7 2 -18 -1 -25
-8z"/>
<path d="M1393 1413 c-10 -10 -14 -15 -9 -11 5 4 15 3 22 -3 10 -8 12 -5 11
10 -2 25 0 25 -24 4z"/>
<path d="M1297 1413 c-13 -12 -7 -19 21 -20 15 -1 20 1 12 4 -8 3 -18 10 -21
15 -3 4 -8 5 -12 1z"/>
<path d="M903 1355 c0 -8 4 -12 9 -9 5 3 6 10 3 15 -9 13 -12 11 -12 -6z"/>
<path d="M1000 1316 c0 -2 7 -7 16 -10 8 -3 12 -2 9 4 -6 10 -25 14 -25 6z"/>
<path d="M1041 1286 c-8 -10 -9 -16 -3 -16 7 0 9 -8 5 -17 -3 -10 -4 -16 -2
-13 2 3 15 18 29 35 14 16 18 24 8 17 -12 -9 -17 -10 -20 -1 -2 7 -8 6 -17 -5z"/>
<path d="M2030 1280 c0 -5 5 -10 11 -10 5 0 7 5 4 10 -3 6 -8 10 -11 10 -2 0
-4 -4 -4 -10z"/>
<path d="M2000 1270 c0 -5 5 -10 10 -10 6 0 10 5 10 10 0 6 -4 10 -10 10 -5 0
-10 -4 -10 -10z"/>
<path d="M1965 1260 c-3 -6 1 -7 9 -4 18 7 21 14 7 14 -6 0 -13 -4 -16 -10z"/>
<path d="M1993 1245 c-15 -7 -37 -22 -47 -34 -15 -16 -22 -18 -33 -10 -10 9
-13 8 -13 -5 0 -10 5 -14 10 -11 14 9 12 -2 -6 -33 l-16 -27 22 25 c12 14 27
32 34 41 13 17 57 49 68 49 5 0 1 -12 -8 -27 -16 -25 -14 -25 14 5 18 18 32
34 32 36 0 7 -31 2 -57 -9z"/>
<path d="M2111 1231 c-19 -19 -26 -33 -21 -42 7 -10 12 -6 20 16 6 15 18 34
28 41 9 8 14 14 10 14 -4 0 -20 -13 -37 -29z"/>
<path d="M980 1238 c0 -4 7 -8 15 -8 8 0 15 4 15 8 0 5 -7 9 -15 9 -8 0 -15
-4 -15 -9z"/>
<path d="M1893 1238 c-13 -6 -23 -15 -23 -20 0 -5 -4 -6 -10 -3 -5 3 -10 1
-10 -5 0 -6 -5 -8 -12 -4 -6 4 -8 3 -4 -4 3 -6 -2 -15 -11 -21 -10 -5 -15 -12
-11 -16 3 -3 14 2 24 12 24 24 75 57 92 59 8 2 16 5 20 8 9 10 -32 5 -55 -6z"/>
<path d="M1640 1205 c0 -8 4 -15 8 -15 5 0 9 7 9 15 0 8 -4 15 -9 15 -4 0 -8
-7 -8 -15z"/>
<path d="M2049 1172 c-9 -9 -19 -24 -23 -32 -4 -8 -1 -7 8 4 8 10 19 15 25 11
6 -3 11 -4 11 -1 0 2 3 11 6 20 8 21 -7 19 -27 -2z"/>
<path d="M1738 1143 c7 -3 16 -2 19 1 4 3 -2 6 -13 5 -11 0 -14 -3 -6 -6z"/>
<path d="M1760 1114 c0 -8 5 -12 10 -9 6 4 8 11 5 16 -9 14 -15 11 -15 -7z"/>
<path d="M1956 1115 c-12 -13 -20 -14 -37 -5 -11 7 -23 9 -26 7 -2 -3 5 -8 16
-12 23 -7 27 -20 11 -30 -5 -3 -10 -11 -10 -17 0 -14 26 8 51 44 22 31 20 37
-5 13z"/>
<path d="M1285 1110 c-3 -5 1 -10 10 -10 9 0 13 5 10 10 -3 6 -8 10 -10 10 -2
0 -7 -4 -10 -10z"/>
<path d="M1870 1100 c0 -6 -4 -8 -10 -5 -5 3 -10 1 -10 -4 0 -13 10 -14 29 -2
9 6 10 11 2 15 -6 4 -11 2 -11 -4z"/>
<path d="M1206 1082 c-3 -6 -2 -13 3 -16 5 -4 8 -19 5 -34 -3 -18 -2 -23 5
-13 5 7 15 10 22 7 8 -4 6 -1 -3 7 -10 8 -15 17 -12 20 3 3 2 13 -4 23 -6 10
-12 13 -16 6z"/>
<path d="M1962 1070 c-7 -11 -8 -20 -3 -20 9 0 24 30 18 36 -1 2 -8 -6 -15
-16z"/>
<path d="M1240 1071 c0 -5 7 -12 16 -15 14 -5 15 -4 4 9 -14 17 -20 19 -20 6z"/>
<path d="M1722 1046 c7 -8 15 -12 17 -11 5 6 -10 25 -20 25 -5 0 -4 -6 3 -14z"/>
<path d="M1805 1050 c-3 -6 1 -7 9 -4 18 7 21 14 7 14 -6 0 -13 -4 -16 -10z"/>
<path d="M1923 1013 c-3 -10 -8 -22 -11 -27 -3 -5 0 -6 5 -3 11 7 25 47 17 47
-3 0 -7 -8 -11 -17z"/>
<path d="M1092 973 c-17 -20 -20 -28 -11 -39 6 -8 18 -14 26 -14 10 0 11 4 3
19 -14 28 -12 36 5 21 9 -7 18 -10 22 -6 3 3 1 6 -6 6 -8 0 -7 5 4 16 9 9 13
19 10 22 -3 4 -10 0 -14 -7 -5 -8 -10 -9 -12 -3 -2 6 -14 -1 -27 -15z"/>
<path d="M1535 960 c-3 -5 -1 -10 4 -10 6 0 11 5 11 10 0 6 -2 10 -4 10 -3 0
-8 -4 -11 -10z"/>
<path d="M989 1013 c-9 -16 -19 -41 -23 -57 -6 -26 -5 -28 8 -17 9 7 13 17 10
22 -3 5 3 12 12 16 28 11 54 36 47 46 -3 5 -14 -1 -24 -14 -15 -20 -19 -21
-19 -6 0 9 5 17 10 17 6 0 10 5 10 10 0 19 -16 10 -31 -17z"/>
<path d="M370 949 c0 -5 5 -7 10 -4 6 3 10 8 10 11 0 2 -4 4 -10 4 -5 0 -10
-5 -10 -11z"/>
<path d="M470 930 c-9 -6 -10 -10 -3 -10 6 0 15 5 18 10 8 12 4 12 -15 0z"/>
<path d="M340 915 c0 -7 30 -13 34 -7 3 4 -4 9 -15 9 -10 1 -19 0 -19 -2z"/>
<path d="M474 895 c8 -8 17 -15 20 -15 3 0 3 7 0 15 -4 8 -13 15 -21 15 -12 0
-12 -2 1 -15z"/>
<path d="M437 863 c-18 -17 -5 -31 24 -28 35 5 46 11 36 21 -4 4 -13 1 -21 -5
-8 -7 -20 -10 -27 -6 -8 6 -7 10 2 16 8 5 9 9 3 9 -6 0 -14 -3 -17 -7z"/>
<path d="M780 860 c-9 -6 -10 -10 -3 -10 6 0 15 5 18 10 8 12 4 12 -15 0z"/>
<path d="M620 830 c-9 -6 -10 -10 -3 -10 6 0 15 5 18 10 8 12 4 12 -15 0z"/>
<path d="M647 814 c-4 -4 -7 -16 -7 -26 0 -17 -12 -23 -35 -18 -5 1 -7 -2 -3
-6 4 -4 3 -13 -3 -21 -9 -9 -8 -13 0 -13 6 0 14 7 17 15 4 8 14 15 23 15 9 0
21 11 28 25 6 14 7 23 3 20 -5 -3 -10 0 -12 6 -2 5 -7 7 -11 3z"/>
<path d="M315 781 c-3 -5 -2 -12 3 -15 5 -3 9 1 9 9 0 17 -3 19 -12 6z"/>
<path d="M378 773 c7 -3 16 -2 19 1 4 3 -2 6 -13 5 -11 0 -14 -3 -6 -6z"/>
<path d="M390 620 c-13 -8 -12 -10 3 -10 9 0 17 5 17 10 0 12 -1 12 -20 0z"/>
<path d="M2506 1197 c3 -10 9 -15 12 -12 3 3 0 11 -7 18 -10 9 -11 8 -5 -6z"/>
<path d="M1966 814 c-9 -22 3 -32 14 -14 12 19 12 30 1 30 -5 0 -12 -7 -15
-16z"/>
</g>
</svg>
